# xmcd CD database file
# Copyright (C) 1996 Ti Kan
#
# Track frame offsets:
#  182
#  28260
#  44090
#  58012
#  80492
#  101807
#  121325
#  136475
#  153252
#  176082
#  197302
#  206615
#
# Disc length: 2881 seconds
#
# Revision: 1
# Processed by: cddbd v1.4b41PL1 Copyright (c) Steve Scherf et al.
# Submitted via: CDWizzard Release:4.12
#
DISCID=aa0b3f0c
DTITLE=Willie P. Bennett - Take My Own Advice
DYEAR=1900
DGENRE=
TTITLE0=livin' in a dirty town
TTITLE1=jukebox
TTITLE2=take my own advice
TTITLE3=step away
TTITLE4=you care
TTITLE5=sometimes it comes so easy
TTITLE6=katie's tune
TTITLE7=breaking the silence
TTITLE8=blood brother
TTITLE9=push on
TTITLE10=red dress
TTITLE11=why'd i go zydeco
EXTD=
EXTT0=
EXTT1=
EXTT2=
EXTT3=
EXTT4=
EXTT5=
EXTT6=
EXTT7=
EXTT8=
EXTT9=
EXTT10=
EXTT11=
PLAYORDER=
